<svg version="1" xmlns="http://www.w3.org/2000/svg" width="1640" height="1640" viewBox="0 0 1230.000000 1230.000000"><path d="M26 308C11.3 309.9.6 322.1.8 336.6c.2 18.5 17.4 31.6 35.4 26.9 16.2-4.1 25.1-21.2 19.3-37.3-4.2-11.7-17.4-19.8-29.5-18.2zM97 307.8c-6 .7-13.1 4.6-17.4 9.4-16.8 18.6-4.1 47.2 20.9 47.1 16-.1 28-12.2 27.9-28.4-.1-11.1-5.7-19.9-15.9-25.2-3.6-1.8-11.9-3.4-15.5-2.9zM167.8 308.1c-18 2.8-29.2 21.3-22.9 37.9 8.8 23.4 41.2 24.7 52.3 2.1 3.2-6.4 3.1-17.8 0-23.8-4.5-8.6-11.9-14.5-19.9-15.9-1.5-.2-3.2-.6-3.8-.7-.5-.2-3.1 0-5.7.4zM237.5 308.5c-14.6 3.3-23 13.6-22.9 28 .2 24.5 28.8 36.9 47.2 20.5 11-9.8 12.2-27.6 2.6-38.9-7-8.1-17.3-11.8-26.9-9.6zM308 308.5c-9.5 2.5-15.7 7.6-19.6 16.3-5 11-2.7 22.9 6.1 31.8 16.3 16.6 46.1 5.3 47.9-18.2 1.4-18.8-16.6-34.4-34.4-29.9zM912.1 308.2c-14.9 2.3-25.3 14.8-24.5 29.5.6 10.2 6.6 19.3 15.7 23.7 18.8 9.1 40.3-3.8 40.8-24.5.5-17.5-14.9-31.3-32-28.7zM979.4 309c-12.8 4.1-20.1 14-20.2 27.2 0 15.8 11.9 28 27.7 28.1 11.6.1 20.6-5.6 26.2-16.5 3.4-6.5 3.1-16.7-.5-24.2-4.1-8.4-12.5-14.5-21.1-15.3-2.2-.2-4.7-.5-5.5-.7-.9-.2-3.8.4-6.6 1.4zM606.2 309.8c-7.2 2.6-12.2 6.9-15.5 13.3-5.6 10.9-4.3 22.5 3.4 31.3 5.6 6.3 10.7 8.8 19.5 9.4 6.1.4 8 .1 12.5-2 10-4.6 15.8-12.7 16.7-23.4 1.6-20-17.9-35.2-36.6-28.6zM1048.5 309.7c-13.7 5.5-21.1 19.9-17.4 33.8 2.4 9.2 11.3 17.9 20.4 20.2 13.2 3.2 26.6-3.1 32.7-15.5 3.4-7 3.2-17.8-.4-24.8-6.7-12.7-22.5-18.8-35.3-13.7zM1118 310.3c-10.1 4.8-16.3 14.5-16.3 25.7 0 25.6 30.6 38.1 48.4 19.8 5.8-6 7.4-10.1 7.4-19.4 0-6.6-.4-8.9-2.5-12.9-3.1-5.9-10.5-12.5-16.2-14.2-6.1-1.9-15.6-1.4-20.8 1zM1189.5 310.3c-21.9 10.4-22.3 40.8-.8 51.3 16.9 8.3 36.8-1.9 40.1-20.6 1.1-6.1.5-10.5-2.3-16.6-4.5-10.2-12.7-15.5-24.5-16.1-6.4-.3-8.3 0-12.5 2zM329.6 405.1c-14.4 5.4-21.9 21.3-17.1 36 2.6 7.6 10 14.9 17.9 17.3 18.9 5.9 36.9-7.1 36.9-26.8 0-9-2.6-14.9-9.5-21.1-7.5-6.8-18.9-9-28.2-5.4zM881.7 404.8c-2.7.8-7 3.5-9.7 5.9-14.9 13.4-11.9 37.1 6 46.4 3.6 1.9 6.1 2.4 12.6 2.4 9.6 0 15.5-2.5 21.3-9.2 5.3-5.9 7-10.9 6.6-19.1-.3-7.7-.5-8.5-2.9-13.2-6.2-11.5-21.1-17.4-33.9-13.2zM108.5 405c-13.2 3-22.6 15.6-21.9 29.2.5 7.2 3 13.1 8 18.2 13.4 13.8 36.6 10.2 45.4-7 3.3-6.3 3.5-18.8.5-24.9-2.6-5.4-8.8-11.3-14.1-13.7-4.8-2.1-13.1-2.9-17.9-1.8zM1107.3 405.5c-15.9 4.9-24 21.1-18.6 37.1 2.3 6.8 10.2 14.5 17.2 16.9 18.2 6 37.1-7.1 37.4-25.9.1-8.4-1.5-13.3-6.4-18.9-7.4-8.5-19.5-12.3-29.6-9.2zM34.8 407c-11.8 3-20.7 14.7-20.9 27.5-.3 22.4 25.4 36.1 44.1 23.4 8.3-5.6 13.1-15.7 12.4-25.7-.3-5.6-4.4-14.2-8.4-18.1-6.8-6.4-18.1-9.4-27.2-7.1zM960.7 407.2c-19.8 4.1-29.3 26.4-18.5 43.3 10.8 16.8 36.1 17.2 47 .7 9.6-14.4 4.3-34.5-10.8-41.7-4.7-2.2-12.9-3.3-17.7-2.3zM1181 406.7c-5.1 1.5-10.5 5-14.3 9.3-11.3 12.6-8.9 32.3 5.2 41.8 9 6.1 19.8 6.7 29.2 1.6 25.3-13.8 16.6-52-12.1-53-3.6-.1-7.2 0-8 .3zM254.5 408.2c-12.4 4.3-21.1 19.5-18.4 32.2 4.8 22.1 31.4 30.6 47.4 15 18.5-17.9 6-48.6-19.7-48.3-3.5 0-7.6.5-9.3 1.1zM183.5 409.7c-4.2.9-10.1 4.2-13.4 7.5-11.3 11.1-11.1 30.1.4 40.7 6.2 5.7 10.6 7.4 19.5 7.5 6.5 0 8.2-.4 12.9-2.9 15.5-8.5 20.1-28.2 9.8-41.7-7.1-9.2-18.4-13.6-29.2-11.1zM1031.2 410.5c-11.2 3.5-19.2 14.6-19.3 26.7-.1 24.6 28.8 37.6 47 21.2 10.5-9.5 12.5-24.7 4.8-36.4-3.8-5.8-7.8-9-14.1-11.2-6-2.1-12.5-2.2-18.4-.3zM386.5 486.5c-15.9 4.7-24.2 20.2-19.4 36.1 5.2 17 26.3 25.1 41.2 15.7 16.9-10.7 18.8-32.7 3.8-46-6.1-5.5-17.8-8.2-25.6-5.8zM829.4 486.5c-19.1 4.3-27.8 26.9-16.8 43.5 4.9 7.4 16 12.9 24.8 12.3 24.7-1.6 35.9-30.6 18.7-48.2-7.3-7.5-16.2-10-26.7-7.6zM138.2 497.9c-15.2 5.2-22.9 21.7-17.3 36.9 7.1 19 32.8 24.3 46.6 9.6 5.6-5.9 7.9-11.7 7.8-19.8 0-11.3-5.4-20.1-15.4-25.2-6.6-3.3-14.7-3.8-21.7-1.5zM303.3 497.5c-12.3 3.7-20.6 14.5-20.5 26.5.1 10.3 4.3 18.6 12.1 23.8 6.5 4.2 11.3 5.5 18.7 4.9 14.5-1.1 25.6-13.2 25.7-28 .1-18.5-18.6-32.6-36-27.2zM909.6 498c-15.5 5.2-23.6 24.3-16.3 38.6 5.1 10 15 16.4 25.6 16.4 15.2 0 28.3-12.9 28.2-27.9-.1-19.8-19-33.5-37.5-27.1zM1075.8 497.1c-16.5 3.8-26.2 24.1-18.9 39.2 8.9 18.4 31.7 22.4 45.8 8.1 6.4-6.7 8.8-13 8.1-21.9-1.5-17.5-17.9-29.4-35-25.4zM70.8 500.5c-.1.1-1.9.5-3.8.8-8.5 1.2-16 6.6-20.5 14.8-2.4 4.5-2.8 6.4-2.9 12.9 0 6.2.5 8.4 2.6 12.5 6.6 12.6 20.2 18.6 33.2 14.8 24.2-7.2 27.9-39 6.1-51.9-2.3-1.3-5.9-2.6-8-2.9-2.2-.3-4.5-.8-5.2-1-.6-.2-1.3-.2-1.5 0zM1146.5 503.4c-17.7 8.2-21.9 32-8.1 45.8 13.9 13.9 37.9 9.4 45.6-8.5 6.1-14 .6-30-12.6-36.7-7.1-3.6-18-3.9-24.9-.6zM224 504c-4.5 1.3-10.4 4.8-13.1 7.7-3.1 3.4-7.2 9.3-6.5 9.3.3 0 .1 1.2-.5 2.7-3.4 9 .2 21.5 8.2 28.7 6 5.4 11.8 7.5 20.1 7.3 24.1-.7 35.8-29.3 19.4-47.5-6.1-6.8-19.1-10.6-27.6-8.2zM990.3 504.8c-16.2 4.7-24.4 24.5-16.4 39.9 8.5 16.6 31.4 20.3 44.7 7.2 15.1-14.8 9.7-39.4-10.1-46.8-6.3-2.4-10.8-2.5-18.2-.3zM467 546.4c-14.9 3-25 17-22.8 31.4 2.3 14.8 13.4 24.5 27.8 24.5 16.1.1 28.4-12.2 28.3-28.3 0-17.9-16-31-33.3-27.6zM745.1 549c-10.2 5.6-15.5 14.2-15.4 25 .1 16.2 11.9 28.3 27.8 28.3 8.6.1 14.3-2.2 20.2-8.1 6.3-6.2 8.1-11.1 7.9-20.7-.2-9.2-2.2-13.8-8.3-19.6-6-5.8-9.8-7.3-18.8-7.6-7.2-.2-8.5.1-13.4 2.7zM370.1 571.9c-22.8 9.1-23.9 41.3-1.9 52 18 8.7 39.6-4.4 40.4-24.3.4-11.2-5.3-21.4-15-26.3-6.6-3.4-16.9-4-23.5-1.4zM840 571.6c-19.4 7.1-25 32.1-10.3 46.7 5.7 5.8 11.6 8.2 19.8 8.1 8.5-.1 14.4-2.5 19.9-8 5.9-5.9 8.1-11.4 8-20.4-.1-8.5-1.6-12.6-6.7-18.5-7-8.1-20.5-11.6-30.7-7.9zM561.2 578.2c-9.6 1.4-16.4 6.5-21.1 15.9-9.1 18.2 4.7 40 25.4 40.2 10.8.1 21.2-6.4 25.9-16.3 3.1-6.7 3-19-.3-24.5-7.2-12-17.3-17.2-29.9-15.3zM659.3 578.1c-14.1 2.7-24.3 16-23 30 2.5 27.4 37.4 36 52.2 12.9 10.1-15.9.1-39.7-17.8-42.5-2.3-.4-4.9-.8-5.7-1-.8-.1-3.4.1-5.7.6zM188.5 581.7c-11.9 3.5-19.8 13.7-20.1 26.2-.4 11 4.7 20.1 14.4 25.9 4.2 2.4 5.7 2.7 13.8 2.7 8.3 0 9.4-.2 14-3 5.8-3.6 11.8-11.3 13.2-16.8 1.5-5.7.8-14.5-1.6-19.7-5.7-12.4-20.6-19.1-33.7-15.3zM1026.5 581.5c-6.2 1.8-9.9 4-13.8 8.4-5.3 5.9-7 10.4-7 19.1-.1 6.2.4 8.4 2.5 12.6 5.1 9.9 14.7 15.6 25.6 15.5 23.3-.3 36.1-26.2 22.3-45.1-6.3-8.7-19.7-13.5-29.6-10.5zM286.7 586.1c-8.7 2-15.3 7.4-19.9 16.2-2.9 5.7-3 16.3-.1 22.8 6.9 15.3 24.3 21.5 39.4 13.8 5.2-2.6 11.5-10.2 13.5-16.1 2.1-6.4 1.4-15.9-1.6-21.8-5.6-10.9-19.5-17.6-31.3-14.9zM931.1 586.3c-7.8 1.6-15.1 7.4-19.4 15.2-1.8 3.2-2.2 5.6-2.2 12.5.1 9.3 1.2 12.3 6.7 18.5 12.6 14.4 35.8 12.3 45.3-4 3.3-5.6 3.8-7.7 3.8-15.6-.2-17.6-16.5-30.4-34.2-26.6zM105.5 591.5c-6.4 2.9-11.5 7.9-14.6 14.1-3.2 6.7-3.2 17 .1 23.8 11.1 23 44.2 21.3 52.4-2.7 4.5-13.3-.9-27.1-13.4-34.1-7.3-4.1-17-4.6-24.5-1.1zM1106 590c-8.4 2.3-16.9 10.2-19.6 18.3-3.3 9.9.1 23.4 7.4 29.9 5.3 4.7 11.1 7 18.2 7.4 26.3 1.1 39.6-30.1 20.6-48.7-6.6-6.5-17.6-9.3-26.6-6.9zM458.3 623.8c-24.3 8-26.4 41.3-3.4 52.4 16.1 7.8 36.2-2.2 39.7-19.7 4.3-21.4-15.9-39.5-36.3-32.7zM756 623c-17.3 4.9-26 23.4-18.6 39.4 6.3 13.7 21.6 20 35.7 14.7 13.1-5 20.7-19.7 17.5-33.9-1.5-6.7-8.1-14.4-15.7-18.3-4.1-2-14.6-3.1-18.9-1.9zM558.5 649.8c-7.8 1.6-16.4 8.7-19.7 16.1-8.6 18.9 5 40.1 25.7 40.1 11.1 0 20.2-5.7 25.3-16 8.9-17.8-3.6-39.3-23.5-40.3-3.2-.2-6.7-.1-7.8.1zM657 650.9c-6.7 2.4-10.1 4.8-13.6 9.4-4.7 6.3-6.3 11.5-6 18.8 1.1 24.3 30.6 36 47.8 18.8 6-6 8-10.6 8.4-19.3.3-5.7-.1-7.8-2.2-12.2-6.3-13.4-21.4-20.2-34.4-15.5zM366 651.9c-8.5 1.7-17.4 9-20.7 16.9-4.3 10.2-1.5 23 6.6 31.1 13.6 13.4 36.3 9.6 45.1-7.5 4.6-9.1 2.9-23.9-3.6-31-7.2-7.7-17.7-11.4-27.4-9.5zM850.5 652.7c-11.4 3.4-19.1 12.9-20.2 24.9-1.9 19.4 17.6 35 36.5 29.3 9.9-2.9 18.6-13.5 19.8-24 1-9-1.7-16.2-8.5-22.9-7.8-7.8-17.5-10.4-27.6-7.3zM251.7 655.4c-19.9 7.1-25.8 31.8-11.1 46.8 10.1 10.5 27.1 11.2 38.6 1.8 2-1.7 5-5.7 6.7-9.1 2.6-5.2 3-7 2.8-13.2-.2-8.7-2.8-14.2-9.3-20.3-7.1-6.7-18.7-9.2-27.7-6zM958 656.5c-10.5 5-15.9 13-16.8 24.6-1.1 16.2 11.5 29.3 28.3 29.3 15.9.1 27.8-11.8 27.9-27.9 0-15.9-10.9-27.3-26.9-28.2-6-.3-7.8 0-12.5 2.2zM168.7 669.6c-12.2 3.2-20.9 14.3-21 26.9-.2 13.1 8.1 24.1 20.8 27.7 20.9 5.9 40.3-13.6 34.6-34.8-4-14.7-19.5-23.7-34.4-19.8zM1047 669.7c-17.8 4.5-26.9 26.4-17.3 41.7 5.6 8.7 14.2 13.8 23.5 13.7 17.1 0 29-11.6 29-28.2.1-18.8-16.9-31.9-35.2-27.2zM454.9 698.9c-9.9 3.5-16.9 11.2-19 21.1-1.4 6.7-.7 11.7 2.5 18.4 8 16.3 29.7 20.8 43.5 8.9 12.2-10.4 13.1-30 2-41.1-7.7-7.8-19.4-10.7-29-7.3zM757.9 698.7c-7.9 2.7-13.4 7.5-17.1 15.2-3.4 6.9-3.2 17.7.4 24.7 5.4 10.3 15.5 16 27.1 15.2 10.7-.7 18.7-6.1 23.9-16.1 3.1-6 3.2-17.4 0-23.8-6.3-12.9-21.3-19.5-34.3-15.2zM330.5 714.9c-7.4 1.9-14.2 7.3-18.1 14.3-2.5 4.6-2.9 6.3-2.9 13.3.1 6.9.5 8.7 2.9 13.2 11.3 20.6 40.3 19.7 50.8-1.4 3.5-7.3 3.2-17.9-.7-25.1-2.9-5.4-7.3-9.5-13.3-12.6-3.7-1.9-14.3-2.9-18.7-1.7zM883.7 715.4c-9.2 3.4-16.4 11-18.7 19.6-3.4 12.9 3.3 27.1 15.5 33 22.3 10.8 47.3-11.9 38.6-35-2.7-7.2-6.7-11.9-13.1-15.4-6.4-3.5-16.3-4.5-22.3-2.2zM554.9 722.4c-10 3.5-16.9 11.2-18.9 20.9-2 10.1.6 19.1 7.5 25.9 13.7 13.5 35.8 10.4 45.1-6.4 2.5-4.6 2.9-6.3 2.9-13.3 0-6.3-.5-8.9-2.2-12.1-3.6-6.7-7-10.1-13.5-13.3-6.8-3.5-14.4-4.1-20.9-1.7zM657.7 722.4c-9.1 3.4-16.3 10.7-18.5 18.9-1.6 5.9-.9 15.6 1.6 20.3 5.3 10.3 14.4 15.9 25.7 15.9 21.3-.1 34.5-21.6 25.1-40.8-4.6-9.4-12.8-14.8-23.6-15.4-4-.2-7.9.2-10.3 1.1zM238.5 738.8c-6.5 2.2-10.5 5.1-13.9 10-12.6 18.3-.9 43 21.2 44.6 15.5 1.2 28.7-10.2 30-25.9.7-9-1.8-15.5-8.4-22-8.1-8-18.2-10.4-28.9-6.7zM972.6 738.8c-6.8 2.2-14.5 10-17 17-6.6 18.9 8.3 38.9 28 37.7 13-.8 22.3-8.3 25.9-20.8 6.3-21.9-14.8-41.3-36.9-33.9zM417.2 759.6c-6 1.6-9.5 3.6-13.5 7.9-10.1 10.7-10.1 28.3 0 38.9 17.5 18.4 48.6 6 48.7-19.4 0-18.8-17-32-35.2-27.4zM799 759.4c-12.9 3.3-21.3 13.9-21.4 27.1-.3 30.3 39.7 39.6 54 12.5 2.8-5.2 2.6-19-.3-24.5-6.6-12.3-19.6-18.4-32.3-15.1zM510.5 786.9c-16.7 4.4-25.7 23.9-18.2 39.3 10.4 21.2 40.1 21.9 50.7 1.2 3.4-6.7 3.6-19.8.3-25.9-5-9.3-12.8-14.4-23-15-3.7-.2-8.1-.1-9.8.4zM705 786.6c-10.3 4.2-15.6 8.9-19 16.6-4.1 9.3-2.1 21.9 4.8 29.8 10.4 12.2 31.2 12.5 41.8.8 12.9-14.3 9-36.3-8-45-4.1-2.1-16.4-3.5-19.6-2.2zM323.5 792.9c-12.6 3.1-21.9 14.8-21.7 27.5.1 11.8 5.6 20.6 16.1 25.7 5.7 2.8 7.1 3.1 13 2.7 11.9-.9 20.2-6.4 24.8-16.6 6.5-14.1.1-31-14.3-37.3-4.7-2.1-13.4-3.1-17.9-2zM893.9 792.9c-2 .4-5.7 1.9-8.2 3.4-16.2 9.6-18.7 31.7-5 44.9 18.5 17.8 49.9 2.6 47.6-23.2-.8-9.4-8.4-19.9-17.1-23.5-4-1.7-12.5-2.5-17.3-1.6zM608.5 795.9c-5.7 1.6-8.4 3-12.5 6.7-12.5 11.3-12.4 30.6.1 41.8 6.1 5.5 11.8 7.5 20.2 7.2 25.4-1 36.4-32.5 17.2-49.4-2.4-2.1-6.1-4.4-8.2-5.1-4.9-1.7-12.9-2.2-16.8-1.2zM412.1 834.1c-1.9.6-5.4 2.4-7.8 4.1-22 15-12.4 49.8 14 51.3 8.6.4 14.5-1.6 20.7-7.2 11.4-10.3 12.7-25.4 3.3-38.7-5.8-8.2-19.7-12.6-30.2-9.5zM802 833.9c-7.9 2.5-14.5 8.4-18.1 15.9-3.2 6.4-3.1 16.7 0 23.3 7 14.8 24.3 20.7 38.7 13.3 20.5-10.4 20.4-39.6-.1-50.1-5.3-2.8-15.8-4-20.5-2.4zM506 859.7c-6.3 2.3-14.2 10.5-16.4 17.1-4.7 14 1.2 28.6 14.1 34.8 4.7 2.3 6.9 2.8 12.7 2.7 8.5-.1 13.1-1.9 19.1-7.4 14.8-13.7 10.7-37.8-7.9-46.5-6.1-2.8-14.7-3.1-21.6-.7zM704.7 859.4c-12.1 4.4-19.3 14.8-19.1 27.6.4 20.8 22.6 33.9 41.3 24.3 12.6-6.4 18.1-21 13.4-34.9-2.4-7-10.3-14.7-17.3-16.8-6.5-1.9-13.2-2-18.3-.2zM609 866.9c-17.4 3.8-27.2 23.1-19.8 39.2 4.6 9.9 12.9 15.8 23.2 16.6 16.2 1.3 29.5-10.1 31-26.6.3-3.9-1.8-12.4-4.2-16.2-6.1-10-18.9-15.5-30.2-13z"/></svg>